# xmcd
#
# Track frame offsets: 
#        150
#        26572
#        42069
#        56355
#        68675
#        84480
#        102034
#        111878
#        129579
#        141473
#        166281
#        187399
#        208087
#
# Disc length: 3022 seconds
#
# Revision: 0
# Processed by: cddbd v1.5.2PL0 Copyright (c) Steve Scherf et al.
# Submitted via: ExactAudioCopy v0.95a5
#
DISCID=b70bcc0d
DTITLE=Bela Bartok - Huj. Imaginations about Bartok's collection of Hu
DTITLE=ngarian folk melodies
DYEAR=2006
DGENRE=Classical
TTITLE0=Sohasë
TTITLE1=Túlsó soron
TTITLE2=Kérették
TTITLE3=Arra kérem
TTITLE4=Dunaparton
TTITLE5=Molnár anna
TTITLE6=Verbunk original - verbunk gabriele
TTITLE7=Ez a kis - ha csakugyan
TTITLE8=Ez a vonat
TTITLE9=Eddig vendég
TTITLE10=Virágos
TTITLE11=Mikor
TTITLE12=Megállj
EXTD=Gabriele Mirabassi (Clarinet]\nWolfgang Netzer (Oud]\nSasha Gotow
EXTD=tschikow (Percussion]\nWolfgang Netzer (Guitar]\nSasha Gotowtschi
EXTD=kow (Drums]\nAudrey Luna (Voice]\n
EXTT0=
EXTT1=
EXTT2=
EXTT3=
EXTT4=
EXTT5=
EXTT6=
EXTT7=
EXTT8=
EXTT9=
EXTT10=
EXTT11=
EXTT12=
PLAYORDER=
